<?xml version="1.0" encoding="UTF-8" standalone="no"?>
<!-- Created with Inkscape (http://www.inkscape.org/) -->

<svg
   width="193.34637mm"
   height="168.67891mm"
   viewBox="0 0 193.34637 168.67891"
   version="1.1"
   id="svg1"
   xml:space="preserve"
   xmlns="http://www.w3.org/2000/svg"
   xmlns:svg="http://www.w3.org/2000/svg"><defs
     id="defs1" /><g
     id="layer1"
     transform="translate(-7.9589138,-58.628334)"><g
       style="fill:#000000"
       id="g3"
       transform="matrix(0.42443335,0,0,0.42443335,1.9297165,39.160352)"><g
         id="g2"
         transform="rotate(30,242.844,242.844)">
	<path
   style="baseline-shift:baseline;display:inline;overflow:visible;opacity:1;vector-effect:none;fill:none;stroke:#000000;stroke-opacity:1;enable-background:accumulate;stop-color:#000000;stop-opacity:1"
   d="M 244.55772,15.232376 47.696748,128.64187 46.089401,358.17981 241.35929,474.32683 438.22096,360.91998 l 1.6065,-229.54059 z"
   id="path1" /><path
   style="baseline-shift:baseline;display:inline;overflow:visible;opacity:1;fill:none;stroke:#000000;stroke-width:0.998979;stroke-dasharray:none;stroke-opacity:1;enable-background:accumulate;stop-color:#000000;stop-opacity:1"
   d="m 182.87589,290.23458 -62.86802,-0.30904 -0.47577,51.35725 -0.0645,24.54955 38.46707,23.24558 25.95013,15.82946 0.20196,-23.94161 z"
   id="path11" /><path
   style="baseline-shift:baseline;display:inline;overflow:visible;opacity:1;fill:none;stroke:#000000;stroke-width:0.998979;stroke-dasharray:none;stroke-opacity:1;enable-background:accumulate;stop-color:#000000;stop-opacity:1"
   d="m 244.95804,47.642902 -169.941947,96.540268 -1.365315,195.44587 21.891339,12.8436 0.249549,-24.57922 0.398998,-87.92801 40.515476,-99.81469 26.87586,-14.44896 46.60632,116.79888 0.6315,157.72987 -0.69325,20.20208 32.10549,18.09797 24.96234,-14.0204 0.0478,-30.82317 -1.35716,-300.995299 117.42078,69.671609 -0.66624,95.55868 -85.84462,0.26856 -1.67365,114.88348 -0.136,36.66764 74.59301,-43.55171 42.59441,-24.19629 1.36532,-195.44589 z"
   id="path1-2" /><path
   style="baseline-shift:baseline;display:inline;overflow:visible;opacity:1;vector-effect:none;fill:none;stroke:#000000;stroke-opacity:1;enable-background:accumulate;stop-color:#000000;stop-opacity:1"
   d="m 153.12657,158.73364 -33.87981,86.45494 0.0284,18.57842 62.75173,0.43762 -0.13658,-22.04532 z"
   id="path4" /><path
   style="baseline-shift:baseline;display:inline;overflow:visible;opacity:1;vector-effect:none;fill:none;stroke:#000000;stroke-opacity:1;enable-background:accumulate;stop-color:#000000;stop-opacity:1"
   d="m 357.04755,180.82283 -60.22549,-34.59813 1.20103,78.89408 58.6994,2.16117 z"
   id="path6" />
</g></g></g></svg>
