<?xml version="1.0" encoding="UTF-8" standalone="no"?>
<!-- Created with Inkscape (http://www.inkscape.org/) -->

<svg
   width="193.34637mm"
   height="168.67891mm"
   viewBox="0 0 193.34637 168.67891"
   version="1.1"
   id="svg1"
   xml:space="preserve"
   xmlns="http://www.w3.org/2000/svg"
   xmlns:svg="http://www.w3.org/2000/svg"><defs
     id="defs1" /><g
     id="layer1"
     transform="translate(-7.9589138,-58.628334)"><g
       style="fill:#000000"
       id="g3"
       transform="matrix(0.42443335,0,0,0.42443335,1.9297165,39.160352)"><g
         id="g2"
         transform="rotate(30,242.844,242.844)">
	<path
   style="baseline-shift:baseline;display:inline;overflow:visible;opacity:1;vector-effect:none;fill:none;stroke:#000000;stroke-opacity:1;enable-background:accumulate;stop-color:#000000;stop-opacity:1"
   d="M 244.55065,16.317429 438.88687,131.90988 437.2884,360.37513 241.36472,473.24079 47.028461,357.64831 48.630311,129.18505 Z"
   id="path7" /><path
   style="baseline-shift:baseline;display:inline;overflow:visible;opacity:1;vector-effect:none;fill:none;stroke:#000000;stroke-opacity:1;enable-background:accumulate;stop-color:#000000;stop-opacity:1"
   d="M 244.55772,15.232376 47.696748,128.64187 46.089401,358.17981 241.35929,474.32683 438.22096,360.91998 l 1.6065,-229.54059 z"
   id="path1" /><path
   style="baseline-shift:baseline;display:inline;overflow:visible;opacity:1;fill:none;stroke:#000000;stroke-width:0.998979;stroke-dasharray:none;stroke-opacity:1;enable-background:accumulate;stop-color:#000000;stop-opacity:1"
   d="m 182.00921,291.10969 1.19845,89.86383 -0.18913,22.37716 -24.62712,-15.02381 -38.0438,-22.99044 0.065,-24.0488 0.46597,-50.47984 z"
   id="path12" /><path
   style="baseline-shift:baseline;display:inline;overflow:visible;opacity:1;fill:none;stroke:#000000;stroke-width:0.998979;stroke-dasharray:none;stroke-opacity:1;enable-background:accumulate;stop-color:#000000;stop-opacity:1"
   d="m 182.87589,290.23458 -62.86802,-0.30904 -0.47577,51.35725 -0.0645,24.54955 38.46707,23.24558 25.95013,15.82946 0.20196,-23.94161 z"
   id="path11" /><path
   style="baseline-shift:baseline;display:inline;overflow:visible;opacity:1;fill:none;stroke:#000000;stroke-width:0.998979;stroke-dasharray:none;stroke-opacity:1;enable-background:accumulate;stop-color:#000000;stop-opacity:1"
   d="m 244.95227,48.656247 167.70331,98.390943 -1.35942,194.43254 -42.1567,23.94808 -73.27009,42.77901 0.13072,-35.12636 1.66009,-114.01515 85.85065,-0.26729 0.67615,-96.93414 -119.18971,-70.720752 1.36541,302.544482 -0.0461,30.30759 -24.08355,13.52607 -31.21148,-17.59155 0.67791,-19.68575 -0.6323,-157.91377 -47.03454,-117.86756 -28.02179,15.06282 -40.698959,100.26639 -0.398726,88.09346 -0.235357,23.06129 -20.144404,-11.81862 1.358607,-194.43085 z"
   id="path10" /><path
   style="baseline-shift:baseline;display:inline;overflow:visible;opacity:1;fill:none;stroke:#000000;stroke-width:0.998979;stroke-dasharray:none;stroke-opacity:1;enable-background:accumulate;stop-color:#000000;stop-opacity:1"
   d="m 244.95804,47.642902 -169.941947,96.540268 -1.365315,195.44587 21.891339,12.8436 0.249549,-24.57922 0.398998,-87.92801 40.515476,-99.81469 26.87586,-14.44896 46.60632,116.79888 0.6315,157.72987 -0.69325,20.20208 32.10549,18.09797 24.96234,-14.0204 0.0478,-30.82317 -1.35716,-300.995299 117.42078,69.671609 -0.66624,95.55868 -85.84462,0.26856 -1.67365,114.88348 -0.136,36.66764 74.59301,-43.55171 42.59441,-24.19629 1.36532,-195.44589 z"
   id="path1-2" /><path
   style="baseline-shift:baseline;display:inline;overflow:visible;opacity:1;vector-effect:none;fill:none;stroke:#000000;stroke-opacity:1;enable-background:accumulate;stop-color:#000000;stop-opacity:1"
   d="m 153.08873,160.53888 28.17995,81.72676 0.1313,21.31313 -61.50386,-0.43021 -0.0256,-17.84283 z"
   id="path9" /><path
   style="baseline-shift:baseline;display:inline;overflow:visible;opacity:1;vector-effect:none;fill:none;stroke:#000000;stroke-opacity:1;enable-background:accumulate;stop-color:#000000;stop-opacity:1"
   d="m 153.12657,158.73364 -33.87981,86.45494 0.0284,18.57842 62.75173,0.43762 -0.13658,-22.04532 z"
   id="path4" /><path
   style="baseline-shift:baseline;display:inline;overflow:visible;opacity:1;vector-effect:none;fill:none;stroke:#000000;stroke-opacity:1;enable-background:accumulate;stop-color:#000000;stop-opacity:1"
   d="m 356.42031,181.18174 -0.31719,45.45177 -57.46625,-2.11701 -1.17506,-77.20542 z"
   id="path8" /><path
   style="baseline-shift:baseline;display:inline;overflow:visible;opacity:1;vector-effect:none;fill:none;stroke:#000000;stroke-opacity:1;enable-background:accumulate;stop-color:#000000;stop-opacity:1"
   d="m 357.04755,180.82283 -60.22549,-34.59813 1.20103,78.89408 58.6994,2.16117 z"
   id="path6" />
</g></g></g></svg>
