<?xml version="1.0" encoding="UTF-8" standalone="no"?>
<!-- Created with Inkscape (http://www.inkscape.org/) -->

<svg
   width="16in"
   height="11.5in"
   viewBox="0 0 1536 1104"
   version="1.1"
   id="svg1"
   xml:space="preserve"
   xmlns="http://www.w3.org/2000/svg"
   xmlns:svg="http://www.w3.org/2000/svg"><defs
     id="defs1"><rect
       x="35.390335"
       y="204.25279"
       width="802.85504"
       height="245.71004"
       id="rect2" /><rect
       x="80.892197"
       y="160.77322"
       width="910.03717"
       height="497.487"
       id="rect1" /></defs><path
     style="font-size:192px;font-family:Constantia;-inkscape-font-specification:Constantia;text-align:center;letter-spacing:8.90482px;baseline-shift:baseline;text-anchor:middle;white-space:pre;display:inline;overflow:visible;vector-effect:none;enable-background:accumulate;stop-color:#000000"
     d="m 556.07422,499.75 0.17187,0.20508 c -1.99464,10.25733 -3.95375,20.89048 -5.88086,31.88867 l -3.36328,0.58789 c -1.91033,-5.74497 -3.75878,-10.41789 -5.55078,-13.93359 v -0.002 c -1.89704,-3.79293 -5.03108,-5.7832 -9.13476,-5.7832 -3.96339,0 -8.77523,1.80902 -14.50782,5.34766 l -0.26562,0.16601 V 564.125 c 0,10.95153 0.0682,18.77864 0.20898,23.49414 l 0.002,0.002 v 0.002 c 0.0381,1.02963 0.29988,1.92377 0.81836,2.6289 0.51847,0.70513 1.28239,1.19622 2.21679,1.46875 l 0.002,0.002 13.62695,3.89257 0.24219,3.31446 c -10.60809,-0.20103 -19.41101,-0.30664 -26.13672,-0.30664 -6.73768,0 -14.76244,0.10677 -23.91797,0.30859 l -0.32422,-3.33984 11.77539,-3.45313 0.01,-0.002 c 1.8354,-0.61181 2.9371,-1.96722 3.01562,-3.77344 v -0.004 -0.006 c 0.0704,-3.02614 0.10547,-7.34562 0.10547,-12.9629 v -35.90039 c 0,-11.44503 -0.14018,-19.97739 -0.42188,-25.61132 l -0.0195,-0.40821 -14.04101,-3.80078 -0.39649,-2.68945 c 11.4419,-2.20218 22.32189,-4.60389 32.62696,-7.20899 l 0.60742,0.42579 v 13.07812 l 0.87305,-0.58594 c 12.83012,-8.59965 25.37349,-12.88303 37.6582,-12.93945 z"
     id="path7" /><path
     style="font-size:192px;font-family:Constantia;-inkscape-font-specification:Constantia;text-align:center;letter-spacing:8.90482px;baseline-shift:baseline;text-anchor:middle;white-space:pre;display:inline;overflow:visible;vector-effect:none;enable-background:accumulate;stop-color:#000000"
     d="m 401.93164,448.95898 -11.61133,1.69141 -53.91992,128.73438 v 0.002 c -1.53531,3.69868 -2.93163,6.40765 -4.14844,8.09765 -1.17877,1.63719 -3.02478,2.87327 -5.60937,3.68946 l -11.07617,3.39844 0.63867,5.50195 0.51367,-0.0137 c 7.78662,-0.21051 14.83591,-0.31641 21.14648,-0.31641 6.31057,0 14.45005,0.1059 24.41407,0.31641 l 0.59961,0.0137 -0.25586,-5.74024 -10.16407,-2.94921 c -1.27802,-0.40359 -2.22135,-0.87137 -2.84179,-1.36133 -0.49383,-0.50608 -0.76758,-1.235 -0.76758,-2.31446 0,-1.21534 0.40006,-2.99956 1.23047,-5.2832 0.84047,-2.31131 1.9969,-5.43243 3.46875,-9.35742 l 0.002,-0.008 10.91211,-27.7461 37.6938,0.25279 -4.08675,-10.68779 -29.26916,-0.26812 21.99219,-55.84571 c 11.13777,31.4635 22.35467,62.89557 33.39844,94.38868 1.3319,3.7854 2.34897,6.83366 3.04687,9.13672 l 0.002,0.01 0.004,0.01 c 0.76036,2.21197 1.12695,3.99218 1.12695,5.29297 0,1.16978 -0.28387,1.94597 -0.7832,2.44531 -0.45397,0.45396 -1.37351,0.96832 -2.73633,1.44531 l -10.41797,3.07031 0.51368,5.50586 0.52148,-0.01 c 10.87628,-0.21057 20.31223,-0.31641 28.30859,-0.31641 7.8559,0 16.37952,0.10593 25.57032,0.31641 l 0.60156,0.0137 -0.25781,-5.52539 -10.26954,-3.06055 c -2.58798,-0.81726 -4.55378,-2.02664 -5.94726,-3.61523 -1.31657,-1.64915 -2.89918,-4.91478 -4.64258,-9.72657 z"
     id="path3" /><path
     style="fill:#000000;fill-opacity:1;stroke:none;stroke-width:2.016;stroke-dasharray:none"
     d="m 555.85243,795.98325 c 1.73095,-2.48485 5.15873,-10.63587 7.61731,-18.1134 3.46647,-10.54289 4.04436,-14.80109 2.57374,-18.9648 -3.72968,-10.5597 -15.26482,-11.62759 -22.32815,-2.06708 -3.66413,4.95958 -5.51353,5.69795 -12.41242,4.95566 -10.11053,-1.08788 -14.53094,0.97216 -16.04299,7.47643 -2.39237,10.29103 5.87231,18.75082 26.14806,26.7655 11.054,4.36945 11.36503,4.36833 14.44441,-0.0523 z"
     id="path4-2" /><path
     style="fill:#000000;fill-opacity:1;stroke:none;stroke-width:2.016;stroke-dasharray:none"
     d="m 960.8385,367.4927 c 2.86581,-0.97863 10.45266,-5.52052 16.85965,-10.09308 9.03353,-6.44705 12.01935,-9.53753 13.29797,-13.76415 3.24276,-10.71926 -5.42359,-18.40652 -16.77514,-14.87997 -5.88867,1.82942 -7.81641,1.33014 -12.93824,-3.35094 -7.50616,-6.86029 -12.28852,-7.81572 -17.35657,-3.46753 -8.01864,6.87966 -6.36308,18.59001 5.23787,37.04966 6.32467,10.06388 6.57605,10.24703 11.67438,8.50602 z"
     id="path4-2-6" /><path
     style="fill:#000000;fill-opacity:1;stroke:none;stroke-width:2.016;stroke-dasharray:none"
     d="m 295.72017,431.85667 c 9.87427,-31.85076 12.86082,-52.16518 10.52448,-71.58743 -1.73558,-14.42811 -2.83765,-17.80563 -8.09023,-24.79415 -17.2595,-22.96361 -44.59565,-18.20267 -58.48493,10.18587 -3.31219,6.76976 -6.20565,13.27325 -6.42992,14.45221 -0.28157,1.48008 -5.05015,2.05871 -15.40544,1.86943 -18.67565,-0.34142 -29.37509,3.68447 -37.2586,14.01936 -10.7761,14.12698 -5.5253,35.81553 11.88648,49.09733 15.19071,11.58757 50.87771,22.31289 85.58217,25.72083 11.44847,1.12422 11.44847,1.12422 17.67599,-18.96345 z"
     id="path4-2-4" /><path
     style="fill:#000000;fill-opacity:1;stroke:none;stroke-width:2.016;stroke-dasharray:none"
     d="m 1267.1376,459.24649 c 11.2609,-5.73282 19.2485,-13.87512 22.1237,-22.5522 6.3231,-19.08243 -9.5345,-32.29827 -31.3236,-26.10539 -7.41,2.10606 -7.5368,2.03747 -12.4762,-6.74421 -10.7131,-19.04666 -28.8631,-21.39336 -39.3885,-5.09273 -2.8133,4.35709 -4.9953,11.07449 -4.97,15.30053 0.06,10.02007 6.5293,32.38762 13.8706,47.95767 5.9391,12.59626 5.9391,12.59626 25.1136,6.92105 10.5461,-3.12136 22.7187,-7.47949 27.0504,-9.68472 z"
     id="path4-2-7" /><path
     style="fill:#000000;fill-opacity:1;stroke:none;stroke-width:2.016;stroke-dasharray:none"
     d="m 922.87514,784.41965 c 10.26928,-7.36308 16.93978,-16.6153 18.47564,-25.62638 3.37759,-19.81693 -14.28921,-30.49433 -34.89738,-21.09114 -7.00835,3.19775 -7.14407,3.14907 -13.34944,-4.78871 -13.45893,-17.21634 -31.7554,-16.80335 -39.70622,0.89629 -2.12523,4.73105 -3.27087,11.70043 -2.60949,15.87444 1.56816,9.89681 11.3317,31.0352 20.93373,45.32231 7.76808,11.55837 7.76808,11.55837 25.86947,3.06065 9.95577,-4.67377 21.33341,-10.81513 25.28369,-13.64746 z"
     id="path4-2-7-9" /><path
     style="fill:#000000;fill-opacity:1;stroke:none;stroke-width:2.016;stroke-dasharray:none"
     d="m 631.06838,332.80378 c 3.66627,-12.09262 3.32733,-23.49369 -0.93881,-31.57814 -9.38201,-17.77912 -29.89829,-15.49768 -40.52597,4.50654 -3.61425,6.80292 -3.75157,6.8469 -13.50653,4.32585 -21.15767,-5.46793 -35.42321,5.99618 -30.95846,24.87893 1.19341,5.0473 4.52646,11.27431 7.59178,14.18352 7.26807,6.89792 27.88093,17.72696 44.19552,23.21832 13.19858,4.44256 13.19858,4.44256 22.38844,-13.31745 5.05441,-9.76803 10.34372,-21.56592 11.75403,-26.21757 z"
     id="path4-2-7-9-0" /><path
     style="fill:#000000;fill-opacity:1;stroke:none;stroke-width:2.016;stroke-dasharray:none"
     d="m 248.22328,736.96382 c 10.80769,-6.54728 18.1734,-15.25623 20.40117,-24.12163 4.89924,-19.49657 -11.8894,-31.50759 -33.16273,-23.72543 -7.23453,2.64651 -7.36608,2.58748 -12.93935,-5.80625 -12.08793,-18.20515 -30.36157,-19.20762 -39.65672,-2.17549 -2.48455,4.55262 -4.16546,11.4126 -3.8287,15.62525 0.79849,9.9884 8.89892,31.81823 17.3679,46.80479 6.85143,12.12423 6.85143,12.12423 25.55549,5.05107 10.28725,-3.89025 22.10555,-9.13378 26.26294,-11.65231 z"
     id="path4-2-7-9-6" /><path
     style="fill:#000000;fill-opacity:1;stroke:none;stroke-width:2.016;stroke-dasharray:none"
     d="m 1274.4021,758.39968 c 17.9703,-28.08984 26.2392,-46.884 29.1393,-66.23012 2.1543,-14.37153 1.9878,-17.92041 -1.2226,-26.052 -10.5488,-26.71962 -38.1685,-29.38149 -59.0915,-5.695 -4.9894,5.64849 -9.5046,11.15131 -10.0336,12.22851 -0.6642,1.35234 -5.4154,0.64516 -15.3494,-2.28458 -17.9158,-5.28378 -29.2999,-4.24065 -39.6428,3.63241 -14.1378,10.76192 -14.829,33.06631 -1.5648,50.49147 11.5722,15.20239 43.135,35.01105 75.6918,47.50385 10.74,4.12118 10.74,4.12118 22.0736,-13.59454 z"
     id="path4-2-4-6" /><path
     style="font-size:192px;font-family:Constantia;-inkscape-font-specification:Constantia;text-align:center;baseline-shift:baseline;text-anchor:middle;white-space:pre;display:inline;overflow:visible;opacity:1;vector-effect:none;enable-background:accumulate;stop-color:#000000;stop-opacity:1"
     d="m 1094.7263,597.18472 c -13.9873,8.46072 -25.7235,10.73425 -41.9067,-2.21232 -5.8957,-4.84288 -8.8435,-11.651 -8.8435,-20.42434 0,-10.80875 4.8078,-18.77495 14.4233,-23.89858 9.6858,-5.12363 24.8461,-7.68545 45.481,-7.68545 l 0.1053,-8.21184 c 0.07,-7.86092 -1.9302,-13.68642 -6.001,-17.4765 -4.0708,-3.79008 -10.3174,-5.68512 -18.7399,-5.68512 -6.3869,0 -14.3882,1.19317 -24.0038,3.57952 l -2.4214,-7.05377 c 13.6864,-5.96587 25.7936,-8.94881 36.3216,-8.94881 10.7386,0 19.0908,2.80747 25.0567,8.42241 6.0361,5.61494 9.019,13.72151 8.9488,24.3197 l -0.5264,43.79652 c -0.07,3.57953 0,6.45718 0.2106,8.63297 0.2807,2.17579 0.9124,3.86027 1.895,5.05345 1.0528,1.12298 2.5969,1.93013 4.6323,2.42144 2.0354,0.42112 4.7727,0.66677 8.2119,0.73696 l 0.5264,4.10592 c -3.0181,1.19318 -6.7029,2.38635 -11.0544,3.57953 -4.3516,1.19317 -7.2995,1.78976 -8.8436,1.78976 -6.8081,0 -11.4755,-3.50934 -14.0022,-10.52801 l -0.5264,-5.57985 0.2105,-34.42659 c -15.3708,0 -25.8638,1.50902 -31.4787,4.52705 -5.6149,3.01803 -8.4224,8.10656 -8.4224,15.26561 0,6.66774 1.8599,11.40534 5.5798,14.21281 8.742,6.43277 14.5947,7.57079 21.4031,5.20605 z"
     id="path11"
     mask="none"
     clip-path="none" /><path
     style="opacity:1;font-size:192px;font-family:Constantia;-inkscape-font-specification:Constantia;text-align:center;baseline-shift:baseline;text-anchor:middle;white-space:pre;display:inline;overflow:visible;vector-effect:none;enable-background:accumulate;stop-color:#000000;stop-opacity:1"
     d="m 919.535,506.53712 c 11.79137,-2.24597 22.91596,-4.70251 33.37379,-7.36961 l 1.0528,0.73696 v 12.2125 c 12.21249,-8.63297 23.58274,-12.94946 34.11075,-12.94946 9.96652,0 17.75726,2.80747 23.37216,8.42241 5.6851,5.54475 8.5277,13.44076 8.5277,23.68802 v 37.16388 c 0,8.77334 0.07,15.26561 0.2106,19.47682 0.07,1.89504 0.9825,3.1233 2.7373,3.6848 l 11.686,3.57952 0.2106,4.31649 c -9.2646,-0.21056 -17.3361,-0.31584 -24.2144,-0.31584 -6.8783,0 -14.52867,0.10522 -22.95108,0.31584 l -0.42112,-4.31649 10.52801,-3.05312 c 1.61429,-0.56149 2.49159,-1.64939 2.63199,-3.26368 0.07,-0.98262 0.1052,-3.1935 0.1052,-6.63265 v -45.90212 c 0,-8.63297 -2.07047,-14.8094 -6.21149,-18.5293 -4.14102,-3.79008 -10.24726,-5.68512 -18.31874,-5.68512 -7.08886,0 -14.42337,2.03541 -22.00354,6.10624 v 46.0074 c 0,8.77334 0.0702,16.80973 0.21056,24.10915 0.0702,1.89504 0.8773,3.08821 2.42144,3.57952 l 10.94913,3.26368 0.21056,4.31649 c -8.70315,-0.21056 -16.49388,-0.31584 -23.37218,-0.31584 -6.8783,0 -15.01996,0.10522 -24.42498,0.31584 l -0.42112,-4.31649 12.42305,-3.57952 c 1.54411,-0.63168 2.35126,-1.71958 2.42144,-3.26368 0.0702,-4.49196 0.10523,-8.80844 0.10523,-12.94946 v -35.90051 c 0,-9.19446 -0.14038,-17.72215 -0.42112,-25.58306 l -14.00226,-3.79009 z"
     id="path10"
     mask="none"
     clip-path="none" /><path
     style="font-size:192px;font-family:Constantia;-inkscape-font-specification:Constantia;text-align:center;baseline-shift:baseline;text-anchor:middle;white-space:pre;display:inline;overflow:visible;opacity:1;vector-effect:none;enable-background:accumulate;stop-color:#000000;stop-opacity:1"
     d="m 877.79142,597.00592 c -7.87486,4.17282 -15.65396,5.12553 -24.05648,5.12553 -14.52866,0 -26.28494,-4.63233 -35.26884,-13.89697 -8.91371,-9.33484 -13.37057,-21.51224 -13.37057,-36.5322 0,-15.44108 4.66742,-28.0396 14.00225,-37.79555 9.40503,-9.82615 21.82808,-14.73922 37.26916,-14.73922 14.59884,0 26.35512,4.52705 35.26883,13.58114 8.91372,8.9839 13.37847,21.00254 13.37847,35.88213 0,16.00257 -4.84288,28.95203 -14.52865,38.84835 -1.95676,1.99962 -2.30809,2.65796 -5.49329,4.80529 l -8.89215,-8.75636 c 0.65308,-0.7874 -0.31088,0.53974 0.27791,-0.36541 4.77269,-7.29942 7.15904,-18.07308 7.15904,-32.32099 0,-13.40566 -2.49163,-23.96877 -7.47488,-31.68931 -4.98326,-7.72054 -12.2125,-11.58081 -21.6877,-11.58081 -8.98391,0 -15.9052,3.38734 -20.74808,10.33583 -4.7727,6.94849 -7.15905,17.4765 -7.15905,31.58403 0,13.12492 2.45654,23.8284 7.36961,32.11043 4.91307,8.21185 12.21249,12.31777 21.89826,12.31777 6.75031,0 11.047,-1.45484 14.83049,-4.55665 z"
     id="path9"
     mask="none"
     clip-path="none" /><path
     style="opacity:1;font-size:192px;font-family:Constantia;-inkscape-font-specification:Constantia;text-align:center;baseline-shift:baseline;text-anchor:middle;white-space:pre;display:inline;overflow:visible;vector-effect:none;enable-background:accumulate;stop-color:#000000;stop-opacity:1"
     d="m 677.28549,448.00139 c 11.44044,-2.24598 22.88088,-4.73761 34.32131,-7.47489 l 0.94753,0.84224 c -0.35094,6.59755 -0.5615,16.00258 -0.63168,28.21507 v 41.37507 c 12.21249,-7.86091 23.58274,-11.79137 34.11075,-11.79137 9.75595,0 17.51159,2.73729 23.2669,8.21185 5.75531,5.40438 8.63297,13.37057 8.63297,23.89858 v 37.16388 c 0,8.07147 0.0702,14.56374 0.21056,19.47682 0.0702,1.82485 0.94748,3.05312 2.632,3.6848 l 11.79137,3.57952 0.21056,4.31649 c -9.26465,-0.21056 -17.33612,-0.31584 -24.21442,-0.31584 -6.8783,0 -14.52866,0.10522 -22.95106,0.31584 l -0.42112,-4.31649 10.42273,-3.05312 c 1.68448,-0.56149 2.5969,-1.64939 2.73728,-3.26368 0.0702,-0.98262 0.10522,-3.1935 0.10522,-6.63265 v -45.90212 c 0,-8.63297 -2.07051,-14.8094 -6.21152,-18.5293 -4.14102,-3.79008 -10.24727,-5.68512 -18.31874,-5.68512 -6.94849,0 -14.283,1.68448 -22.00354,5.05344 v 47.27076 c 0,8.70316 0.0702,16.66935 0.21056,23.89859 0.0702,1.96522 0.94749,3.19349 2.632,3.6848 l 10.94913,3.1584 0.21056,4.31649 c -8.84353,-0.21056 -16.70444,-0.31584 -23.58274,-0.31584 -6.8783,0 -15.01996,0.10522 -24.42498,0.31584 l -0.42112,-4.31649 11.89665,-3.47424 c 1.82485,-0.5615 2.77237,-1.68448 2.84256,-3.36896 0.14037,-6.73793 0.21056,-15.33581 0.21056,-25.79363 v -44.00708 c 0,-14.31809 -0.035,-26.9868 -0.10522,-38.00611 0,-11.01932 -0.10523,-19.30135 -0.31584,-24.84611 l -14.21282,-4.2112 z"
     id="path8"
     mask="none"
     clip-path="none" /><path
     style="opacity:1;font-size:192px;font-family:Constantia;-inkscape-font-specification:Constantia;text-align:center;baseline-shift:baseline;text-anchor:middle;white-space:pre;display:inline;overflow:visible;vector-effect:none;enable-background:accumulate;stop-color:#000000;stop-opacity:1"
     d="m 566.53084,501.58896 c 8.84353,0.21056 16.70444,0.31584 23.58274,0.31584 4.70252,0 12.2125,-0.10523 22.52995,-0.31584 l 0.42112,4.31648 -12.31778,3.36896 c 2.59691,7.36961 5.61494,15.51127 9.05409,24.42499 3.43915,8.84352 7.08886,18.07308 10.94913,27.68866 1.6143,4.00064 3.36897,8.59788 5.26401,13.79169 1.96523,-5.264 4.07083,-10.63329 6.3168,-16.10785 3.29878,-8.14166 6.49228,-16.14295 9.58049,-24.00386 3.08822,-7.9311 6.28171,-16.52898 9.58049,-25.79363 l -12.00193,-3.36896 -0.42112,-4.31648 c 5.19382,0.21056 11.26497,0.31584 18.21346,0.31584 6.24662,0 12.31777,-0.10523 18.21345,-0.31584 l 0.5264,4.31648 -9.79105,2.73728 c -2.17578,0.70187 -3.75499,2.1407 -4.7376,4.31649 -2.59691,5.96587 -5.40438,12.49323 -8.42241,19.58209 -9.26465,21.75789 -16.28332,39.58532 -21.05602,53.48229 -3.22859,9.40503 -6.14134,19.02061 -8.73825,28.84675 -2.5969,9.89633 -4.59723,18.38892 -6.00096,25.47778 -0.63168,3.43915 -1.93014,6.03606 -3.89536,7.79073 -1.89505,1.82486 -6.387,2.73728 -13.47586,2.73728 -7.22923,0 -14.2479,-0.24565 -21.05602,-0.73696 l -0.5264,-4.10592 c 7.72054,-1.19318 13.44076,-3.6848 17.16066,-7.47489 4.49195,-4.84288 11.44044,-17.72215 20.84546,-38.63779 l 0.84224,-2.00033 -1.47392,-0.42112 c -12.84417,-32.00515 -24.46008,-60.15002 -34.84771,-84.43463 -0.91243,-2.10561 -2.52673,-3.54443 -4.84289,-4.31649 l -9.26465,-2.84256 z"
     id="path1"
     mask="none"
     clip-path="none" /></svg>
